<?xml version="1.0" encoding="UTF-8" standalone="no"?>
<svg
   xmlns:dc="http://purl.org/dc/elements/1.1/"
   xmlns:cc="http://creativecommons.org/ns#"
   xmlns:rdf="http://www.w3.org/1999/02/22-rdf-syntax-ns#"
   xmlns:svg="http://www.w3.org/2000/svg"
   xmlns="http://www.w3.org/2000/svg"
   xmlns:sodipodi="http://sodipodi.sourceforge.net/DTD/sodipodi-0.dtd"
   xmlns:inkscape="http://www.inkscape.org/namespaces/inkscape"
   sodipodi:docname="logo.svg"
   inkscape:version="1.0 (4035a4f, 2020-05-01)"
   id="svg985"
   version="1.1"
   viewBox="0 0 123.4096 10.60185"
   height="10.60185mm"
   width="123.4096mm">
  <defs
     id="defs979" />
  <sodipodi:namedview
     inkscape:window-maximized="0"
     inkscape:window-y="31"
     inkscape:window-x="139"
     inkscape:window-height="680"
     inkscape:window-width="1294"
     showgrid="false"
     inkscape:document-rotation="0"
     inkscape:current-layer="layer1"
     inkscape:document-units="mm"
     inkscape:cy="21.224038"
     inkscape:cx="233.74009"
     inkscape:zoom="1.23"
     inkscape:pageshadow="2"
     inkscape:pageopacity="0.0"
     borderopacity="1.0"
     bordercolor="#666666"
     pagecolor="#ffffff"
     id="base" />
  <metadata
     id="metadata982">
    <rdf:RDF>
      <cc:Work
         rdf:about="">
        <dc:format>image/svg+xml</dc:format>
        <dc:type
           rdf:resource="http://purl.org/dc/dcmitype/StillImage" />
        <dc:title></dc:title>
      </cc:Work>
    </rdf:RDF>
  </metadata>
  <g
     transform="translate(-43.989602,-142.55114)"
     id="layer1"
     inkscape:groupmode="layer"
     inkscape:label="Calque 1">
    <path
       style="stroke-width:0.264583;fill:#cda433;fill-opacity:1"
       d="m 61.00231,151.70308 c -0.881062,-0.97102 -1.322916,-2.23044 -1.322916,-3.79413 0,-1.57956 0.441854,-2.85221 1.322916,-3.85233 0.881063,-1.00013 1.9685,-1.50548 3.262313,-1.50548 0.510646,0 0.963083,0.10054 1.391708,0.30427 0.425979,0.20373 0.717021,0.30427 0.854604,0.30427 0.261938,0 0.425979,-0.12964 0.494771,-0.37571 h 0.219604 v 2.89719 h -0.137583 c -0.08202,-0.8255 -0.386292,-1.52135 -0.907521,-2.07169 -0.510646,-0.55033 -1.169458,-0.8255 -1.955271,-0.8255 -1.830916,0 -2.754312,1.651 -2.754312,4.953 0,3.46075 0.992187,5.18319 2.960687,5.18319 0.854605,0 1.55575,-0.3175 2.119313,-0.94192 0.563562,-0.63764 0.838729,-1.53458 0.838729,-2.67758 h 0.193146 c 0,2.38919 -1.280584,3.85233 -3.317875,3.85233 -1.293813,-0.003 -2.38125,-0.47889 -3.262313,-1.44991 z"
       id="path888" />
    <path
       style="stroke-width:0.264583;fill:#cda433;fill-opacity:1"
       d="m 118.93282,149.73458 v 3.18558 h -7.88723 v -0.23283 h 1.28059 v -8.32644 c 0,-0.74348 -0.57415,-1.34673 -1.28059,-1.34673 v 0 -0.23283 h 7.51682 v 2.23043 h -0.16405 c -0.0953,-1.33085 -0.96308,-1.9976 -2.61673,-1.9976 h -1.85737 v 4.54819 h 2.66965 l 0.003,-2.11402 h 0.16404 v 4.53231 h -0.16404 c -0.0688,-0.62177 -0.15081,-1.00013 -0.35719,-1.44727 -0.17991,-0.44979 -0.5371,-0.67998 -0.99218,-0.67998 h -1.32292 v 2.97921 c 0,1.29646 0.99748,1.85737 2.23044,1.85737 v 0 l 2.61143,-0.005 c 0.003,-0.045 0.003,-2.90248 0.005,-2.94746 z"
       id="path890" />
    <path
       style="stroke-width:0.264583;fill:#cda433;fill-opacity:1"
       d="m 54.162831,142.78397 h 4.156604 v 0.23284 h -1.280583 v 8.32643 c 0,0.74348 0.574146,1.34673 1.280583,1.34673 v 0 0.23284 h -4.156604 v -0.23284 h 1.280583 v -8.32643 c 0,-0.74348 -0.574145,-1.34673 -1.280583,-1.34673 v 0 c 0,0 0,-0.23284 0,-0.23284 z"
       id="path892" />
    <path
       style="stroke-width:0.264583;fill:#cda433;fill-opacity:1"
       d="m 106.05292,142.78397 h 4.15659 v 0.23284 h -1.28057 v 8.32643 c 0,0.74348 0.57414,1.34673 1.28057,1.34673 v 0 0.23284 h -4.15659 v -0.23284 h 1.28058 v -8.32643 c 0,-0.74348 -0.57415,-1.34673 -1.28058,-1.34673 v 0 z"
       id="path894" />
    <path
       style="stroke-width:0.264583;fill:#cda433;fill-opacity:1"
       d="m 142.29288,142.78397 h 4.15661 v 0.23284 h -1.28058 v 8.32643 c 0,0.74348 0.57414,1.34673 1.28058,1.34673 v 0 0.23284 h -4.15661 v -0.23284 h 1.28059 v -8.32643 c 0,-0.74348 -0.57415,-1.34673 -1.28059,-1.34673 v 0 z"
       id="path896" />
    <path
       style="stroke-width:0.264583;fill:#cda433;fill-opacity:1"
       d="m 141.34568,142.9877 h -1.28059 v 8.32644 c 0,0.74348 0.57415,1.34673 1.28059,1.34673 v 0 0.23283 h -4.15661 v -0.23283 h 1.28059 v -9.23925 h -0.0556 l -3.39989,9.46944 h -0.24871 l -3.37344,-9.46944 h -0.0556 v 7.89252 c 0,0.74348 0.57414,1.34673 1.28058,1.34673 v 0 0.23283 h -2.89189 v -0.23283 h 1.28058 v -8.32644 c 0,-0.74348 -0.57415,-1.34673 -1.28058,-1.34673 v 0 -0.23283 h 3.16706 l 2.72521,7.58825 2.73843,-7.58825 h 2.98715 z"
       id="path898" />
    <path
       style="stroke-width:0.264583;fill:#cda433;fill-opacity:1"
       d="m 88.328477,147.85074 c 0,1.57957 -0.468313,2.85221 -1.389063,3.83646 -0.923395,0.97102 -2.05052,1.46315 -3.360208,1.46315 -1.307042,0 -2.436812,-0.49213 -3.373437,-1.47638 -0.923396,-0.98425 -1.391709,-2.25954 -1.391709,-3.82323 0,-1.56368 0.468313,-2.83898 1.391709,-3.82323 0.936625,-0.98425 2.06375,-1.47637 3.373437,-1.47637 1.307042,0 2.436813,0.49212 3.360208,1.47637 0.92075,0.97103 1.389063,2.24632 1.389063,3.82323 z m -1.788583,0 c 0,-3.37343 -0.992188,-5.06941 -2.960688,-5.06941 -1.981729,0 -2.973917,1.69333 -2.973917,5.08264 0,3.37344 0.992188,5.05354 2.973917,5.05354 1.9685,0.003 2.960688,-1.69333 2.960688,-5.06677 z"
       id="path900" />
    <path
       style="stroke-width:0.264583;fill:#cda433;fill-opacity:1"
       d="m 95.802956,152.01264 c -0.140229,-0.2831 -0.944562,-2.40771 -1.029229,-2.65377 -0.28575,-0.64558 -0.727604,-1.15094 -1.61925,-1.24619 h -0.841375 v 3.20146 c 0,0.74348 0.574146,1.34673 1.280583,1.34673 v 0.23283 h -4.156604 v -0.23283 h 1.280583 v -8.32644 c 0,-0.74348 -0.574145,-1.34673 -1.280583,-1.34673 v -0.23283 h 2.272771 c 0.261937,0 0.674688,-0.0132 1.267354,-0.0291 0.592667,-0.0159 0.949854,-0.0291 1.074208,-0.0291 1.706563,0 2.891896,0.7964 2.891896,2.57704 0,1.55046 -0.936625,2.46856 -2.389187,2.64054 v 0.0291 c 0.605896,0.0423 0.941916,0.24871 1.219729,0.508 0.878417,0.82285 1.489604,3.11414 1.743604,3.59833 0.256646,0.48948 0.613833,0.73025 0.889,0.73025 -0.105833,0.19315 -1.905,0.64558 -2.6035,-0.76729 z m -1.783292,-4.18835 c 0.8255,0 1.267355,-0.52123 1.267355,-2.31775 0,-1.95528 -0.455084,-2.57705 -1.513417,-2.57705 -0.481542,0 -0.963083,0.0132 -1.4605,0.0291 v 4.86569 z"
       id="path902" />
    <path
       style="stroke-width:0.264583;fill:#cda433;fill-opacity:1"
       d="m 126.27766,152.01264 c -0.14023,-0.2831 -0.94457,-2.40771 -1.02923,-2.65377 -0.28575,-0.64558 -0.72761,-1.15094 -1.61925,-1.24619 h -0.84138 v 3.20146 c 0,0.74348 0.57415,1.34673 1.28058,1.34673 v 0.23283 h -4.1566 v -0.23283 h 1.28058 v -8.32644 c 0,-0.74348 -0.57414,-1.34673 -1.28058,-1.34673 v -0.23283 h 2.27277 c 0.26194,0 0.67469,-0.0132 1.26736,-0.0291 0.59266,-0.0159 0.94985,-0.0291 1.0742,-0.0291 1.70657,0 2.8919,0.7964 2.8919,2.57704 0,1.55046 -0.93663,2.46856 -2.38919,2.64054 v 0.0291 c 0.6059,0.0423 0.94192,0.24871 1.21973,0.508 0.87842,0.82285 1.48961,3.11414 1.74361,3.59833 0.25664,0.48948 0.61383,0.73025 0.889,0.73025 -0.10584,0.19315 -1.905,0.64558 -2.6035,-0.76729 z m -1.78065,-4.18835 c 0.8255,0 1.26735,-0.52123 1.26735,-2.31775 0,-1.95528 -0.45508,-2.57705 -1.51341,-2.57705 -0.48154,0 -0.96309,0.0132 -1.4605,0.0291 v 4.86569 z"
       id="path904" />
    <path
       style="stroke-width:0.264583;fill:#cda433;fill-opacity:1"
       d="m 77.792769,142.78397 v 2.23044 h -0.164042 c -0.124354,-0.63765 -0.261938,-1.00012 -0.632354,-1.40494 -0.370417,-0.40481 -1.031875,-0.59266 -1.981729,-0.59266 h -0.674688 v 8.32643 c 0,0.74348 0.574146,1.34673 1.280583,1.34673 v 0 0.23284 h -4.161895 v -0.23284 h 1.280583 v -9.67316 h -1.217083 c -0.558271,0 -1.068917,0.18785 -1.439334,0.59266 -0.373062,0.40482 -0.508,0.76729 -0.632354,1.40494 h -0.164042 v -2.23044 z"
       id="path906" />
    <path
       style="stroke-width:0.264583;fill:#cda433;fill-opacity:1"
       d="m 167.3992,147.85074 c 0,1.57957 -0.46832,2.85221 -1.38907,3.83646 -0.92339,0.97102 -2.05052,1.46315 -3.3602,1.46315 -1.30705,0 -2.43682,-0.49213 -3.37344,-1.47638 -0.9234,-0.98425 -1.39171,-2.25954 -1.39171,-3.82323 0,-1.56368 0.46831,-2.83898 1.39171,-3.82323 0.93662,-0.98425 2.06375,-1.47637 3.37344,-1.47637 1.30704,0 2.43681,0.49212 3.3602,1.47637 0.92075,0.97103 1.38907,2.24632 1.38907,3.82323 z m -1.78859,0 c 0,-3.37343 -0.99218,-5.06941 -2.96068,-5.06941 -1.98173,0 -2.97392,1.69333 -2.97392,5.08264 0,3.37344 0.99219,5.05354 2.97392,5.05354 1.9685,0.003 2.96068,-1.69333 2.96068,-5.06677 z"
       id="path908" />
    <path
       style="stroke-width:0.264583;fill:#cda433;fill-opacity:1"
       d="m 156.03799,142.78397 v 2.23044 h -0.16404 c -0.12436,-0.63765 -0.26194,-1.00012 -0.63236,-1.40494 -0.37041,-0.40481 -1.03187,-0.59266 -1.98173,-0.59266 h -0.67468 v 8.32643 c 0,0.74348 0.57414,1.34673 1.28058,1.34673 v 0 0.23284 h -4.1566 v -0.23284 h 1.28058 v -9.67316 h -1.21708 c -0.55828,0 -1.06892,0.18785 -1.43934,0.59266 -0.37306,0.40482 -0.508,0.76729 -0.63235,1.40494 h -0.16404 v -2.23044 z"
       id="path910" />
    <path
       style="stroke-width:0.264583;fill:#cda433;fill-opacity:1"
       d="m 50.776164,142.66756 h 2.38125 v 0.23283 h -0.799041 l -3.413125,10.13619 h -0.425979 l -3.09298,-9.07257 c -0.216958,-0.63764 -0.791104,-1.06362 -1.436687,-1.06362 v 0 -0.23283 h 4.143375 v 0.23283 h -1.280583 l 2.561166,7.86342 2.217209,-6.59342 c 0.20902,-0.61913 -0.227542,-1.27 -0.854605,-1.27 v 0 c 0,0 0,-0.23283 0,-0.23283 z"
       id="path912" />
  </g>
</svg>
